<mxfile host="app.diagrams.net" agent="Mozilla/5.0 (Windows NT 10.0; Win64; x64) AppleWebKit/537.36 (KHTML, like Gecko) Chrome/133.0.0.0 Safari/537.36 Edg/133.0.0.0" version="26.0.11">
  <diagram id="V2pqEZ0N-6mDVY4QFXeP" name="Page-1">
    <mxGraphModel dx="1688" dy="678" grid="1" gridSize="10" guides="1" tooltips="1" connect="1" arrows="1" fold="1" page="1" pageScale="1" pageWidth="850" pageHeight="1100" math="0" shadow="0">
      <root>
        <mxCell id="0" />
        <mxCell id="1" parent="0" />
        <mxCell id="ygM--QE8ATZ16dhM6aDT-17" value="Generation" style="rounded=0;whiteSpace=wrap;html=1;fillColor=none;dashed=1;dashPattern=8 8;verticalAlign=top;" vertex="1" parent="1">
          <mxGeometry x="470" y="100" width="440" height="210" as="geometry" />
        </mxCell>
        <mxCell id="ygM--QE8ATZ16dhM6aDT-12" value="Retrieval" style="rounded=0;whiteSpace=wrap;html=1;fillColor=none;dashed=1;dashPattern=8 8;verticalAlign=top;" vertex="1" parent="1">
          <mxGeometry x="160" y="100" width="300" height="210" as="geometry" />
        </mxCell>
        <mxCell id="ygM--QE8ATZ16dhM6aDT-8" style="edgeStyle=orthogonalEdgeStyle;rounded=0;orthogonalLoop=1;jettySize=auto;html=1;entryX=0;entryY=0.5;entryDx=0;entryDy=0;" edge="1" parent="1" source="ygM--QE8ATZ16dhM6aDT-1" target="ygM--QE8ATZ16dhM6aDT-7">
          <mxGeometry relative="1" as="geometry" />
        </mxCell>
        <mxCell id="ygM--QE8ATZ16dhM6aDT-1" value="Search engine/&lt;div&gt;Vector database&lt;/div&gt;" style="rounded=0;whiteSpace=wrap;html=1;" vertex="1" parent="1">
          <mxGeometry x="180" y="230" width="120" height="60" as="geometry" />
        </mxCell>
        <mxCell id="ygM--QE8ATZ16dhM6aDT-6" style="edgeStyle=orthogonalEdgeStyle;rounded=0;orthogonalLoop=1;jettySize=auto;html=1;entryX=0;entryY=0.5;entryDx=0;entryDy=0;" edge="1" parent="1" source="ygM--QE8ATZ16dhM6aDT-2" target="ygM--QE8ATZ16dhM6aDT-1">
          <mxGeometry relative="1" as="geometry">
            <mxPoint x="170" y="259.9999999999998" as="targetPoint" />
          </mxGeometry>
        </mxCell>
        <mxCell id="ygM--QE8ATZ16dhM6aDT-11" style="edgeStyle=orthogonalEdgeStyle;rounded=0;orthogonalLoop=1;jettySize=auto;html=1;entryX=0.5;entryY=1;entryDx=0;entryDy=0;exitX=0.5;exitY=1;exitDx=0;exitDy=0;" edge="1" parent="1" source="ygM--QE8ATZ16dhM6aDT-2" target="ygM--QE8ATZ16dhM6aDT-9">
          <mxGeometry relative="1" as="geometry">
            <Array as="points">
              <mxPoint x="80" y="330" />
              <mxPoint x="550" y="330" />
            </Array>
          </mxGeometry>
        </mxCell>
        <mxCell id="ygM--QE8ATZ16dhM6aDT-2" value="User query" style="rounded=1;whiteSpace=wrap;html=1;" vertex="1" parent="1">
          <mxGeometry x="20" y="245" width="120" height="30" as="geometry" />
        </mxCell>
        <mxCell id="ygM--QE8ATZ16dhM6aDT-5" style="edgeStyle=orthogonalEdgeStyle;rounded=0;orthogonalLoop=1;jettySize=auto;html=1;entryX=0.5;entryY=0;entryDx=0;entryDy=0;" edge="1" parent="1" source="ygM--QE8ATZ16dhM6aDT-4" target="ygM--QE8ATZ16dhM6aDT-1">
          <mxGeometry relative="1" as="geometry" />
        </mxCell>
        <mxCell id="ygM--QE8ATZ16dhM6aDT-4" value="Prepared content" style="rounded=1;whiteSpace=wrap;html=1;" vertex="1" parent="1">
          <mxGeometry x="180" y="140" width="120" height="60" as="geometry" />
        </mxCell>
        <mxCell id="ygM--QE8ATZ16dhM6aDT-10" style="edgeStyle=orthogonalEdgeStyle;rounded=0;orthogonalLoop=1;jettySize=auto;html=1;entryX=0;entryY=0.5;entryDx=0;entryDy=0;" edge="1" parent="1" source="ygM--QE8ATZ16dhM6aDT-7" target="ygM--QE8ATZ16dhM6aDT-9">
          <mxGeometry relative="1" as="geometry" />
        </mxCell>
        <mxCell id="ygM--QE8ATZ16dhM6aDT-7" value="Relevant chunks" style="rounded=1;whiteSpace=wrap;html=1;" vertex="1" parent="1">
          <mxGeometry x="320" y="230" width="120" height="60" as="geometry" />
        </mxCell>
        <mxCell id="ygM--QE8ATZ16dhM6aDT-14" style="edgeStyle=orthogonalEdgeStyle;rounded=0;orthogonalLoop=1;jettySize=auto;html=1;entryX=0;entryY=0.5;entryDx=0;entryDy=0;" edge="1" parent="1" source="ygM--QE8ATZ16dhM6aDT-9" target="ygM--QE8ATZ16dhM6aDT-13">
          <mxGeometry relative="1" as="geometry" />
        </mxCell>
        <mxCell id="ygM--QE8ATZ16dhM6aDT-9" value="Prompt" style="rounded=1;whiteSpace=wrap;html=1;" vertex="1" parent="1">
          <mxGeometry x="490" y="230" width="120" height="60" as="geometry" />
        </mxCell>
        <mxCell id="ygM--QE8ATZ16dhM6aDT-16" style="edgeStyle=orthogonalEdgeStyle;rounded=0;orthogonalLoop=1;jettySize=auto;html=1;entryX=0;entryY=0.5;entryDx=0;entryDy=0;" edge="1" parent="1" source="ygM--QE8ATZ16dhM6aDT-13" target="ygM--QE8ATZ16dhM6aDT-15">
          <mxGeometry relative="1" as="geometry" />
        </mxCell>
        <mxCell id="ygM--QE8ATZ16dhM6aDT-13" value="LLM" style="rounded=0;whiteSpace=wrap;html=1;" vertex="1" parent="1">
          <mxGeometry x="630" y="230" width="120" height="60" as="geometry" />
        </mxCell>
        <mxCell id="ygM--QE8ATZ16dhM6aDT-15" value="Response" style="rounded=1;whiteSpace=wrap;html=1;" vertex="1" parent="1">
          <mxGeometry x="770" y="230" width="120" height="60" as="geometry" />
        </mxCell>
      </root>
    </mxGraphModel>
  </diagram>
</mxfile>
